<svg xmlns="http://www.w3.org/2000/svg" width="800" height="800" viewBox="0 0 28 28"><path d="M26 8a2 2 0 0 1-2 2h-4a2 2 0 0 1-2-2V4a2 2 0 0 1 2-2h4a2 2 0 0 1 2 2v4Zm-2-8h-4a4 4 0 0 0-4 4v4a4 4 0 0 0 4 4h4a4 4 0 0 0 4-4V4a4 4 0 0 0-4-4Zm2 24a2 2 0 0 1-2 2h-4a2 2 0 0 1-2-2v-4a2 2 0 0 1 2-2h4a2 2 0 0 1 2 2v4Zm-2-8h-4a4 4 0 0 0-4 4v4a4 4 0 0 0 4 4h4a4 4 0 0 0 4-4v-4a4 4 0 0 0-4-4ZM10 8a2 2 0 0 1-2 2H4a2 2 0 0 1-2-2V4a2 2 0 0 1 2-2h4a2 2 0 0 1 2 2v4ZM8 0H4a4 4 0 0 0-4 4v4a4 4 0 0 0 4 4h4a4 4 0 0 0 4-4V4a4 4 0 0 0-4-4Zm2 24a2 2 0 0 1-2 2H4a2 2 0 0 1-2-2v-4a2 2 0 0 1 2-2h4a2 2 0 0 1 2 2v4Zm-2-8H4a4 4 0 0 0-4 4v4a4 4 0 0 0 4 4h4a4 4 0 0 0 4-4v-4a4 4 0 0 0-4-4Z"/></svg>